<svg xmlns="http://www.w3.org/2000/svg" viewBox="0 0 55.65 198.94"><defs><style>.cls-1{fill:#fcce60;}.cls-2{fill:#fff;}</style></defs><g id="Layer_2" data-name="Layer 2"><g id="Texto"><rect class="cls-1" width="55.65" height="198.94"/><path class="cls-2" d="M21.33,172.61v-2.32l12.74-5.54v3.17L31.37,169v5l2.7,1.07v3.09ZM25,171.53l4,1.55V170Z"/><path class="cls-2" d="M24.64,153.34a2.75,2.75,0,0,0-.77,1,3.4,3.4,0,0,0-.27,1.4,3.53,3.53,0,0,0,.3,1.46,3.45,3.45,0,0,0,.86,1.17,4,4,0,0,0,1.3.78,5,5,0,0,0,3.29,0,4.11,4.11,0,0,0,1.3-.77,3.4,3.4,0,0,0,1.16-2.55,3.14,3.14,0,0,0-.36-1.53,3,3,0,0,0-1-1.1l1.74-2.34a4.84,4.84,0,0,1,1.68,2,6.36,6.36,0,0,1,.54,2.56,7.9,7.9,0,0,1-.47,2.75,6.29,6.29,0,0,1-1.34,2.18,6.06,6.06,0,0,1-2.12,1.43,7.78,7.78,0,0,1-5.54,0,6,6,0,0,1-2.11-1.43,6.31,6.31,0,0,1-1.35-2.18,7.9,7.9,0,0,1-.46-2.75,6.4,6.4,0,0,1,.1-1.13,5.94,5.94,0,0,1,.31-1.15,5,5,0,0,1,.58-1.09,4.08,4.08,0,0,1,.88-.93Z"/><path class="cls-2" d="M21.33,143.34V141l12.74-5.54v3.17l-2.7,1.1v4.95l2.7,1.06v3.09ZM25,142.27l4,1.54V140.7Z"/><path class="cls-2" d="M24.64,124.07a2.71,2.71,0,0,0-.77,1,3.35,3.35,0,0,0-.27,1.39,3.44,3.44,0,0,0,1.16,2.64,3.83,3.83,0,0,0,1.3.77,5,5,0,0,0,3.29,0,4.09,4.09,0,0,0,1.3-.76A3.55,3.55,0,0,0,31.5,128a3.38,3.38,0,0,0,.31-1.41,3,3,0,0,0-1.37-2.63l1.74-2.34a4.9,4.9,0,0,1,1.68,2.05,6.36,6.36,0,0,1,.54,2.56,7.86,7.86,0,0,1-.47,2.75,6.29,6.29,0,0,1-1.34,2.18,6.06,6.06,0,0,1-2.12,1.43,7.64,7.64,0,0,1-5.54,0,6,6,0,0,1-2.11-1.43A6.31,6.31,0,0,1,21.47,129a7.86,7.86,0,0,1-.46-2.75,6.21,6.21,0,0,1,.1-1.12,5.84,5.84,0,0,1,.31-1.16,5,5,0,0,1,.58-1.09,4.29,4.29,0,0,1,.88-.93Z"/><path class="cls-2" d="M21.33,118.31V115.5H34.07v2.81Z"/><path class="cls-2" d="M21.33,107v-2.32l12.74-5.55v3.17l-2.7,1.1v5l2.7,1.06v3.1ZM25,105.87l4,1.55V104.3Z"/></g></g></svg>