<svg xmlns="http://www.w3.org/2000/svg" viewBox="0 0 124.92 11.79"><defs><style>.cls-1{fill:#fff;}</style></defs><g id="Layer_2" data-name="Layer 2"><g id="Alpha"><path class="cls-1" d="M10,3A15,15,0,0,0,8.72,1.6,4.58,4.58,0,0,0,7.57.75a3.57,3.57,0,0,0-1-.21A13.49,13.49,0,0,0,4.93.45H4.16L3.8.49H3.55a1.62,1.62,0,0,1,0,.19c0,.06,0,.14,0,.22s0,.2,0,.33,0,.3,0,.49c0,.37,0,.78,0,1.22V5.73h.29l.56,0,.65,0a3.53,3.53,0,0,0,.56-.07,3,3,0,0,0,.91-.33,1.7,1.7,0,0,0,.53-.5,1.77,1.77,0,0,0,.27-.63c.06-.23.1-.48.15-.75h.19V8.55H7.3a7.69,7.69,0,0,0-.37-1.08,2.45,2.45,0,0,0-.58-.88,2.2,2.2,0,0,0-.64-.4A2.42,2.42,0,0,0,4.9,6L4.48,6H3.38v2.8c0,.25,0,.47,0,.65,0,.34,0,.67.06,1a1.7,1.7,0,0,0,.18.68.92.92,0,0,0,.49.34,3.64,3.64,0,0,0,1,.16v.16H0v-.16a4,4,0,0,0,.74-.21,1.58,1.58,0,0,0,.57-.4.61.61,0,0,0,.13-.28c0-.12.06-.27.09-.43s0-.32.05-.5,0-.35,0-.52,0-.35,0-.61,0-.53,0-.84,0-.61,0-.93V2.82c0-.2,0-.39,0-.6a5.17,5.17,0,0,0,0-.57,2.28,2.28,0,0,0-.08-.49A.74.74,0,0,0,1.36.85,1.12,1.12,0,0,0,.85.52C.67.47.43.43.14.38V.22H9l1.09,2.69Z"/><path class="cls-1" d="M19.8,11.75v-.16l.23,0a1.47,1.47,0,0,0,.38-.11,1,1,0,0,0,.36-.22.5.5,0,0,0,.15-.37,2,2,0,0,0-.09-.47c-.06-.22-.14-.49-.25-.8s-.23-.67-.37-1.05-.28-.78-.44-1.2H15.51c-.16.41-.32.79-.47,1.16L14.6,9.6a3.91,3.91,0,0,0-.34,1.22.45.45,0,0,0,.13.34.92.92,0,0,0,.33.23,1.43,1.43,0,0,0,.43.12l.44.08v.16H12.18v-.18a1.85,1.85,0,0,0,.71-.22,2.22,2.22,0,0,0,.35-.24,4.31,4.31,0,0,0,.36-.53,13.18,13.18,0,0,0,.63-1.23L15,7.63c.28-.64.56-1.3.86-2l.87-2.05.81-1.93-.16-.35A2.38,2.38,0,0,0,17.88,1a2.45,2.45,0,0,0,.41-.36,3,3,0,0,0,.3-.37L18.77,0h.13c.33.89.65,1.73,1,2.52s.58,1.56.85,2.3L21.49,7l.77,2c.12.34.23.61.33.83l.34.74a2.5,2.5,0,0,0,.44.56,1.9,1.9,0,0,0,.46.29,1.59,1.59,0,0,0,.64.14v.2Zm-2.1-9.7c-.06.14-.16.36-.28.65s-.27.67-.46,1.09l-.6,1.45c-.21.54-.45,1.12-.71,1.75h4c-.18-.48-.37-1-.56-1.44s-.36-.94-.54-1.38-.33-.85-.48-1.22S17.8,2.28,17.7,2.05Z"/><path class="cls-1" d="M36.28,11.75l-.21-.22-.14-.17a2.36,2.36,0,0,1-.2-.28l-.38-.55c-.2-.3-.38-.57-.53-.81L34.35,9c-.16-.23-.34-.47-.52-.71s-.41-.51-.67-.81a5.71,5.71,0,0,0-.7-.69,1.8,1.8,0,0,0-.79-.4,2.51,2.51,0,0,0-.46-.06l-.37,0V8.13c0,.51,0,.94,0,1.3s0,.63,0,.88a1.28,1.28,0,0,0,.17.61,1.59,1.59,0,0,0,.5.42,2.31,2.31,0,0,0,1,.25v.16H27.46v-.16a4.57,4.57,0,0,0,.77-.2,1.21,1.21,0,0,0,.58-.38.88.88,0,0,0,.13-.29,4.3,4.3,0,0,0,.07-.43c0-.16,0-.33,0-.51s0-.36,0-.53,0-.35,0-.61,0-.53,0-.84,0-.61,0-.93V2.82c0-.2,0-.39,0-.59l0-.56c0-.17,0-.33-.08-.48a.64.64,0,0,0-.16-.31,1.1,1.1,0,0,0-.53-.34,6.37,6.37,0,0,0-.73-.16V.22H32c.71,0,1.34,0,1.9.06A3.87,3.87,0,0,1,35.37.7a3.16,3.16,0,0,1,1.14,1,2.87,2.87,0,0,1,.43,1.6,2.42,2.42,0,0,1-.22,1.06,2.67,2.67,0,0,1-.57.83,3.52,3.52,0,0,1-.84.62,7,7,0,0,1-1,.43v0a2,2,0,0,1,.53.42,6.06,6.06,0,0,1,.49.6l.91,1.32c.32.47.61.88.87,1.25a5,5,0,0,0,1.15,1.21,3.09,3.09,0,0,0,1.31.5v.16Zm-1.58-10a2.82,2.82,0,0,0-1.17-1,3.8,3.8,0,0,0-.81-.25,4.27,4.27,0,0,0-.89-.08h-.54L31,.5c0,.06,0,.12,0,.16s0,.11,0,.19,0,.18,0,.31,0,.32,0,.57,0,.79,0,1.26,0,.93,0,1.36V6.11c.44,0,.85,0,1.23-.05a5.71,5.71,0,0,0,1.09-.23A2.79,2.79,0,0,0,34,5.39a2.31,2.31,0,0,0,.6-.61A2.57,2.57,0,0,0,35,4a3.2,3.2,0,0,0,.11-.83A2.62,2.62,0,0,0,34.7,1.78Z"/><path class="cls-1" d="M54.44.69a1.37,1.37,0,0,0-.55.69,2.45,2.45,0,0,0-.15.88c0,.44,0,.9-.06,1.39s0,1-.06,1.62,0,1.3,0,2v1c0,.37,0,.75,0,1.14s0,.78,0,1.16v1a.15.15,0,0,1,0,.1.16.16,0,0,1-.12,0,.41.41,0,0,1-.29-.16c-.91-1-1.74-2-2.48-2.88l-2.14-2.5-2-2.33c-.65-.76-1.34-1.54-2.07-2.35V8.32c0,.55,0,1,0,1.47a2.86,2.86,0,0,0,.2,1,1.13,1.13,0,0,0,.55.55,3.39,3.39,0,0,0,1,.27v.16H42.38v-.16a3.64,3.64,0,0,0,.77-.2,1.26,1.26,0,0,0,.61-.51,2.12,2.12,0,0,0,.28-1c.05-.44.08-1,.1-1.57s0-1,0-1.62,0-1.3,0-2V2.74c0-.22,0-.48,0-.79A1.79,1.79,0,0,0,44,1.19a1.41,1.41,0,0,0-.41-.46A1.75,1.75,0,0,0,43,.49c-.19,0-.37-.08-.54-.11V.22h3.25l7.59,8.87V3.65c0-.43,0-.84,0-1.23a3.12,3.12,0,0,0-.14-.92A1.49,1.49,0,0,0,52.6.78a2.85,2.85,0,0,0-1.18-.4V.22h4V.38A2.53,2.53,0,0,0,54.44.69Z"/><path class="cls-1" d="M59.44,11.75v-.16a3.79,3.79,0,0,0,.74-.21,1.67,1.67,0,0,0,.59-.42.68.68,0,0,0,.12-.27,2.35,2.35,0,0,0,.06-.42,4,4,0,0,0,0-.5c0-.18,0-.35,0-.52s0-.35,0-.61,0-.53,0-.84V2.24a4.7,4.7,0,0,0,0-.54c0-.16,0-.31-.07-.44a.79.79,0,0,0-.14-.32,1.36,1.36,0,0,0-.56-.39,3.67,3.67,0,0,0-.74-.17V.22h4.78V.38a4.73,4.73,0,0,0-.72.18,1.09,1.09,0,0,0-.59.51,1.53,1.53,0,0,0-.15.69c0,.28,0,.54,0,.78s0,.54,0,.8,0,.52,0,.79V9.49c0,.31,0,.61,0,.9a1.14,1.14,0,0,0,.14.61,1.16,1.16,0,0,0,.61.41,3,3,0,0,0,.75.18v.16Z"/><path class="cls-1" d="M78.39,11.75h-9.8v-.16a4.11,4.11,0,0,0,.75-.21,1.58,1.58,0,0,0,.57-.4A.92.92,0,0,0,70,10.7a3.71,3.71,0,0,0,.08-.43,3.8,3.8,0,0,0,.06-.5c0-.18,0-.35,0-.52V8.64c0-.25,0-.53,0-.84s0-.61,0-.93V2.82c0-.2,0-.39,0-.6s0-.39,0-.57,0-.35-.08-.49A.74.74,0,0,0,70,.85a1.2,1.2,0,0,0-.52-.33c-.18-.05-.41-.09-.7-.14V.22h8.83l1.09,2.64-.16.08A7.73,7.73,0,0,0,76.07.77a3.88,3.88,0,0,0-1-.23A15.09,15.09,0,0,0,73.27.45l-.7,0-.52.06c0,.17,0,.52,0,1.05s0,1.16,0,1.86v1c0,.28,0,.51,0,.69s0,.31,0,.4v.18h.32l.55,0,.62,0A3,3,0,0,0,74,5.6a2.85,2.85,0,0,0,.8-.3,1.7,1.7,0,0,0,.52-.47,2.08,2.08,0,0,0,.32-.63,6.7,6.7,0,0,0,.22-.81h.19v5h-.19a5.41,5.41,0,0,0-.39-1,3,3,0,0,0-.55-.82,2.22,2.22,0,0,0-.62-.37A2.9,2.9,0,0,0,73.46,6l-.4,0H72a5.1,5.1,0,0,0,0,.65V8.56c0,.17,0,.34,0,.49s0,.29,0,.39c0,.34,0,.67.05,1a1.54,1.54,0,0,0,.19.68,1,1,0,0,0,.69.32,7.12,7.12,0,0,0,1.18.1l.7,0c.28,0,.58,0,.88-.08a3.16,3.16,0,0,0,.95-.25,3.1,3.1,0,0,0,.83-.52,5.13,5.13,0,0,0,.78-.82A10.53,10.53,0,0,0,79,8.64l.18,0Z"/><path class="cls-1" d="M94.75.69a1.43,1.43,0,0,0-.55.69,2.77,2.77,0,0,0-.14.88c0,.44,0,.9-.07,1.39s0,1,0,1.62,0,1.3,0,2v1c0,.37,0,.75,0,1.14s0,.78,0,1.16v1a.12.12,0,0,1,0,.1.16.16,0,0,1-.12,0,.43.43,0,0,1-.29-.16L91,8.75c-.75-.87-1.46-1.71-2.13-2.5l-2-2.33c-.65-.76-1.34-1.54-2.06-2.35V8.32c0,.55,0,1,0,1.47a2.45,2.45,0,0,0,.2,1,1.13,1.13,0,0,0,.55.55,3.24,3.24,0,0,0,1,.27v.16H82.7v-.16a3.56,3.56,0,0,0,.76-.2,1.22,1.22,0,0,0,.61-.51,2.12,2.12,0,0,0,.29-1c0-.44.07-1,.1-1.57s0-1,0-1.62,0-1.3,0-2V2.74c0-.22,0-.48,0-.79a1.79,1.79,0,0,0-.22-.76,1.56,1.56,0,0,0-.42-.46,1.64,1.64,0,0,0-.52-.24c-.18,0-.36-.08-.53-.11V.22h3.25l7.58,8.87V3.65c0-.43,0-.84,0-1.23a2.8,2.8,0,0,0-.15-.92,1.38,1.38,0,0,0-.57-.72,2.8,2.8,0,0,0-1.17-.4V.22h4V.38A2.58,2.58,0,0,0,94.75.69Z"/><path class="cls-1" d="M110.88,3.23q-.13-.28-.3-.6a6.42,6.42,0,0,0-.37-.58q-.18-.27-.36-.51a1.79,1.79,0,0,0-.3-.34,1.7,1.7,0,0,0-.73-.42,4.33,4.33,0,0,0-1-.12h-2c0,.27,0,.63,0,1.09s0,.94,0,1.44V9.43c0,.31,0,.6,0,.88a1.1,1.1,0,0,0,.15.61,1.19,1.19,0,0,0,.68.47c.29.09.56.15.79.2v.16h-5.2v-.16a6.66,6.66,0,0,0,.8-.16,1.63,1.63,0,0,0,.75-.53.43.43,0,0,0,.12-.27,3.86,3.86,0,0,0,.07-.41c0-.16,0-.32,0-.51s0-.35,0-.52v-.6c0-.24,0-.51,0-.81s0-.61,0-.93V.64h-2a3.38,3.38,0,0,0-1,.14,1.93,1.93,0,0,0-.73.45,1.68,1.68,0,0,0-.3.33l-.35.49c-.12.18-.24.37-.35.57a4.36,4.36,0,0,0-.27.59l-.14,0,.48-3a6.7,6.7,0,0,0,.68.13,7.84,7.84,0,0,0,.9.07l1.09,0h4.9l.93,0h1.09a4.85,4.85,0,0,0,.87-.09,6.82,6.82,0,0,0,.71-.19L111,3.18Z"/><path class="cls-1" d="M124.12,11.75h-9.8v-.16a4,4,0,0,0,.74-.21,1.58,1.58,0,0,0,.57-.4.61.61,0,0,0,.13-.28c0-.12.06-.27.09-.43a3.85,3.85,0,0,0,.05-.5,4.61,4.61,0,0,0,0-.52c0-.15,0-.35,0-.61s0-.53,0-.84,0-.61,0-.93V2.82c0-.2,0-.39,0-.6a5.17,5.17,0,0,0,0-.57,2.28,2.28,0,0,0-.08-.49.64.64,0,0,0-.15-.31,1.12,1.12,0,0,0-.51-.33c-.18-.05-.42-.09-.71-.14V.22h8.84l1.09,2.64-.16.08A7.86,7.86,0,0,0,121.79.77a3.78,3.78,0,0,0-1-.23A15.28,15.28,0,0,0,119,.45l-.69,0-.52.06q0,.25-.06,1.05c0,.54,0,1.16,0,1.86v1c0,.28,0,.51,0,.69v.58H118l.56,0,.62,0a3.12,3.12,0,0,0,.52-.07,2.85,2.85,0,0,0,.8-.3,1.82,1.82,0,0,0,.52-.47,2.33,2.33,0,0,0,.32-.63c.08-.24.15-.51.22-.81h.19v5h-.19a5.47,5.47,0,0,0-.4-1,2.77,2.77,0,0,0-.55-.82,2.16,2.16,0,0,0-.61-.37,2.9,2.9,0,0,0-.84-.17l-.4,0h-1.06a5.1,5.1,0,0,0,0,.65V8.56c0,.17,0,.34,0,.49v.39c0,.34,0,.67.06,1a1.7,1.7,0,0,0,.18.68,1,1,0,0,0,.69.32,7.24,7.24,0,0,0,1.19.1l.69,0c.28,0,.58,0,.89-.08a3.1,3.1,0,0,0,.94-.25,3.14,3.14,0,0,0,.84-.52,5.57,5.57,0,0,0,.77-.82,12.09,12.09,0,0,0,.78-1.18l.18,0Z"/></g></g></svg>