<?xml version="1.0" standalone="no"?>
<!DOCTYPE svg PUBLIC "-//W3C//DTD SVG 20010904//EN"
 "http://www.w3.org/TR/2001/REC-SVG-20010904/DTD/svg10.dtd">
<svg version="1.0" xmlns="http://www.w3.org/2000/svg"
 width="313.000000pt" height="313.000000pt" viewBox="0 0 313.000000 313.000000"
 preserveAspectRatio="xMidYMid meet">
<metadata>
Created by potrace 1.11, written by Peter Selinger 2001-2013
</metadata>
<g transform="translate(0.000000,313.000000) scale(0.100000,-0.100000)"
fill="#000000" stroke="none">
<path d="M1510 3123 c-268 -26 -457 -100 -640 -252 -238 -198 -385 -502 -392
-813 -1 -43 12 -219 17 -238 1 -3 5 -23 9 -45 15 -76 67 -220 115 -315 83
-164 152 -264 391 -565 128 -161 242 -317 289 -395 63 -107 127 -263 165 -401
21 -77 73 -109 138 -87 42 15 60 43 83 131 63 239 166 411 480 802 270 337
378 519 447 755 39 136 56 379 33 500 -16 89 -38 176 -46 184 -5 6 -9 16 -9
24 0 26 -77 176 -128 247 -72 102 -143 177 -234 246 -107 80 -269 161 -373
185 -124 30 -264 44 -345 37z m106 -365 c-8 -75 -8 -192 0 -268 2 -25 6 -117
10 -205 l5 -160 -56 -35 c-200 -123 -364 -383 -427 -674 -10 -47 -11 -49 -20
-26 -10 28 -44 167 -53 217 -27 163 -28 346 -2 468 34 155 116 305 272 500
112 140 226 255 254 255 23 0 23 -1 17 -72z m459 -549 c4 -6 -7 -47 -23 -92
-17 -45 -47 -129 -67 -187 -70 -197 -152 -340 -239 -414 -119 -102 -344 -191
-553 -220 -37 -5 -36 -14 -7 107 36 143 113 316 189 422 117 165 284 274 520
340 55 15 114 34 130 41 37 16 42 17 50 3z"/>
</g>
</svg>
