<svg xmlns="http://www.w3.org/2000/svg" viewBox="0 0 227.21 28.87"><defs><style>.cls-1{fill:#bb887a;}</style></defs><g id="Layer_2" data-name="Layer 2"><g id="Alpha"><rect class="cls-1" x="101.01" y="12.47" width="1.47" height="6.68"/><polygon class="cls-1" points="109.55 19.15 106.32 14.9 106.32 19.15 104.87 19.15 104.87 12.47 106.22 12.47 109.35 16.59 109.35 12.47 110.8 12.47 110.8 19.15 109.55 19.15"/><polygon class="cls-1" points="116.55 19.2 115.25 19.2 112.55 12.47 114.17 12.47 115.92 17.18 117.67 12.47 119.25 12.47 116.55 19.2"/><polygon class="cls-1" points="121 19.15 121 12.47 126.04 12.47 126.04 13.78 122.46 13.78 122.46 15.13 125.61 15.13 125.61 16.44 122.46 16.44 122.46 17.84 126.09 17.84 126.09 19.15 121 19.15"/><path class="cls-1" d="M132.2,14.75c0-.63-.44-.95-1.16-.95h-1.46v1.92h1.49c.72,0,1.13-.39,1.13-1Zm0,4.4L130.74,17h-1.16v2.14h-1.47V12.47h3.06c1.57,0,2.51.83,2.51,2.21h0a2.09,2.09,0,0,1-1.43,2.08l1.64,2.38Z"/><path class="cls-1" d="M138.1,19.25a4.22,4.22,0,0,1-2.83-1.07l.87-1a3,3,0,0,0,2,.81c.6,0,1-.24,1-.63v0c0-.37-.23-.56-1.35-.85-1.35-.34-2.21-.71-2.21-2v0a2.09,2.09,0,0,1,2.34-2,3.9,3.9,0,0,1,2.48.85l-.77,1.11a3.12,3.12,0,0,0-1.73-.66c-.57,0-.86.26-.86.59h0c0,.44.28.59,1.44.88,1.35.36,2.12.84,2.12,2v0c0,1.32-1,2.07-2.46,2.07"/><rect class="cls-1" x="142.62" y="12.47" width="1.47" height="6.68"/><path class="cls-1" d="M151.75,15.81a2,2,0,0,0-2-2.1,2,2,0,0,0-2,2.08v0a2,2,0,0,0,2,2.1,2,2,0,0,0,2-2.08Zm-2,3.46a3.43,3.43,0,0,1-3.54-3.44v0a3.55,3.55,0,0,1,7.1,0v0a3.46,3.46,0,0,1-3.56,3.46"/><polygon class="cls-1" points="159.99 19.15 156.76 14.9 156.76 19.15 155.31 19.15 155.31 12.47 156.66 12.47 159.79 16.59 159.79 12.47 161.24 12.47 161.24 19.15 159.99 19.15"/><polygon class="cls-1" points="163.56 19.15 163.56 12.47 168.6 12.47 168.6 13.78 165.02 13.78 165.02 15.13 168.17 15.13 168.17 16.44 165.02 16.44 165.02 17.84 168.65 17.84 168.65 19.15 163.56 19.15"/><path class="cls-1" d="M173.05,19.25a4.22,4.22,0,0,1-2.83-1.07l.87-1a3,3,0,0,0,2,.81c.6,0,1-.24,1-.63v0c0-.37-.22-.56-1.34-.85-1.35-.34-2.22-.71-2.22-2v0a2.1,2.1,0,0,1,2.34-2,3.86,3.86,0,0,1,2.48.85l-.76,1.11a3.13,3.13,0,0,0-1.74-.66c-.56,0-.86.26-.86.59h0c0,.44.29.59,1.45.88,1.35.36,2.11.84,2.11,2v0c0,1.32-1,2.07-2.45,2.07"/><path class="cls-1" d="M184.21,19.27a3.38,3.38,0,0,1-3.43-3.44v0a3.39,3.39,0,0,1,3.49-3.45,3.44,3.44,0,0,1,2.63,1L186,14.47a2.47,2.47,0,0,0-1.71-.76,2,2,0,0,0-1.94,2.08v0a2,2,0,0,0,1.94,2.1,2.38,2.38,0,0,0,1.75-.78l.94.94a3.41,3.41,0,0,1-2.74,1.2"/><path class="cls-1" d="M191.79,14.19l-.89,2.17h1.78Zm2,5-.61-1.5h-2.82l-.61,1.5h-1.5l2.86-6.73h1.36l2.86,6.73Z"/><path class="cls-1" d="M200.9,14.81c0-.66-.46-1-1.2-1h-1.13v2h1.16a1,1,0,0,0,1.17-1Zm-1.22,2.34h-1.11v2H197.1V12.47h2.73a2.29,2.29,0,0,1,2.56,2.31v0c0,1.55-1.21,2.35-2.71,2.35"/><rect class="cls-1" x="204.26" y="12.47" width="1.47" height="6.68"/><polygon class="cls-1" points="211.14 13.83 211.14 19.15 209.67 19.15 209.67 13.83 207.64 13.83 207.64 12.47 213.17 12.47 213.17 13.83 211.14 13.83"/><path class="cls-1" d="M217.1,14.19l-.88,2.17H218Zm2,5-.61-1.5h-2.83l-.61,1.5h-1.5l2.87-6.73h1.35l2.86,6.73Z"/><polygon class="cls-1" points="222.41 19.15 222.41 12.47 223.88 12.47 223.88 17.82 227.21 17.82 227.21 19.15 222.41 19.15"/><path class="cls-1" d="M79.24,7.36V6.94a25.08,25.08,0,0,0-2.62.42v6.31l2.62-.23Z"/><path class="cls-1" d="M81.65.67a5.66,5.66,0,0,0-4.81,6l1.36-.22S77.76,1.57,81.65.67Z"/><path class="cls-1" d="M85.56,6.47l1.36.22a5.66,5.66,0,0,0-4.81-6C86,1.57,85.56,6.47,85.56,6.47Z"/><path class="cls-1" d="M81.62,6.29V1s-2.89.59-2.89,5.47C78.73,6.42,81,6.28,81.62,6.29Z"/><path class="cls-1" d="M82.12,1V6.29c.67,0,2.89.13,2.89.13C85,1.54,82.12,1,82.12,1Z"/><path class="cls-1" d="M82.11.67h0V.25a.25.25,0,0,0-.5,0V.67h.49Z"/><path class="cls-1" d="M73.48,17.44l3.14-.35v2.07H87.13V17.09l3.14.35V19h.57v-4.4h0l-3.69-.4a50.78,50.78,0,0,0-10.51,0l-3.69.4h0V19h.57Zm13.65-2.68,3.14.34v1.77l-3.14-.35Zm-13.65.34,3.14-.34v1.76l-3.14.35Z"/><path class="cls-1" d="M72.44,20.42s3.09.9,3.09,3.14h.17l.14-3.64h-3.4Z"/><path class="cls-1" d="M87.91,19.92,88,23.56h.18c0-2.24,3.08-3.14,3.08-3.14v-.5Z"/><polygon class="cls-1" points="76 27.03 81.57 28.87 81.57 19.88 76.42 19.88 76 27.03"/><polygon class="cls-1" points="82.17 19.88 82.17 28.87 87.74 27.03 87.32 19.88 82.17 19.88"/><path class="cls-1" d="M84,7.46V6.87a24.14,24.14,0,0,0-4.21,0v6.54H84Zm-2.16,3.8a1.42,1.42,0,1,1,1.43-1.42A1.42,1.42,0,0,1,81.82,11.26Z"/><path class="cls-1" d="M84.51,6.93v.2h0v6.31l2.62.23V7.36h0A24.51,24.51,0,0,0,84.51,6.93Z"/><path class="cls-1" d="M6.34,16.62c-.68,2.19-1.73,3.48-3.58,3.48C1.17,20.1,0,19.4,0,17.93a6.71,6.71,0,0,1,.25-1.48l1-3.32c.18-.53.05-.73-.33-.73H.5c-.06,0-.1,0-.09-.1l.06-.25c0-.07,0-.09.16-.09s.55,0,1.4,0,1.36,0,1.48,0,.12,0,.11.12l-.05.22a.11.11,0,0,1-.12.1H3.07c-.28,0-.56,0-.75.67l-1,3.16A7.63,7.63,0,0,0,1,17.9a1.72,1.72,0,0,0,1.87,1.66A2.54,2.54,0,0,0,4.41,19a5,5,0,0,0,1.33-2.45l1-3.4c.17-.57-.07-.72-.44-.72H5.89c-.11,0-.12,0-.11-.1l0-.22A.13.13,0,0,1,6,12c.14,0,.59,0,1.44,0,.69,0,1,0,1.08,0s.12,0,.11.12l0,.22c0,.06,0,.1-.13.1H8.18c-.38,0-.55.22-.68.54Z"/><path class="cls-1" d="M8,19.92c-.13,0-.16,0-.13-.11l.84-2.19a12,12,0,0,0,.61-1.78c0-.12,0-.2-.17-.2s-.8.57-1,.79c0,0-.07,0-.12,0l-.1-.11s-.06-.07,0-.12C8.08,16,9,15,9.81,15a.35.35,0,0,1,.38.35,9.45,9.45,0,0,1-.61,1.77l.05,0C10,16.57,11.27,15,12.33,15c.35,0,.59.18.59.48a6.55,6.55,0,0,1-.66,2.1,10,10,0,0,0-.61,1.63.14.14,0,0,0,.14.15c.18,0,.7-.44.86-.6s.09,0,.13,0l.08.1c.05,0,.06.07,0,.13A3.24,3.24,0,0,1,11,20c-.16,0-.29-.06-.29-.24a23.05,23.05,0,0,1,.8-2.18,12.5,12.5,0,0,0,.59-1.7c0-.16-.08-.27-.3-.27-.46,0-1.63,1.09-2.15,1.93a7.15,7.15,0,0,0-.71,1.47l-.3.8s0,.07-.16.07Z"/><path class="cls-1" d="M18.83,14.1a.3.3,0,0,1,.16-.17l.73-.26h.08s0,0,0,.05a.16.16,0,0,1,0,.09L19.27,15l.24,0h.24a1.52,1.52,0,0,1,1.63,1.57A3,3,0,0,1,20,19a5.63,5.63,0,0,1-2.46.89l-.84,2.34c-.21.64-.12.8.38.8h.33c.06,0,.1.06.08.1l-.08.23a.13.13,0,0,1-.14.08c-.13,0-.49,0-1.24,0s-1.14,0-1.27,0-.09,0-.08-.08l.07-.23c0-.05,0-.1.08-.1h.27c.47,0,.66-.27.9-.95l2.32-6.38a3.62,3.62,0,0,0-1.47,1.07.07.07,0,0,1-.1,0l-.13-.12s-.05-.07,0-.11a4.39,4.39,0,0,1,1.88-1.38Zm-1.18,5.46c1.42-.22,2.9-1.26,2.9-2.72,0-.91-.54-1.36-1.06-1.36a2.3,2.3,0,0,0-.38,0Z"/><path class="cls-1" d="M22.26,19.92c-.09,0-.14-.05-.11-.11l.66-1.91c.21-.67.58-1.91.58-2.07a.18.18,0,0,0-.2-.18c-.24,0-.77.53-.93.73a.06.06,0,0,1-.1,0L22,16.26s0-.05,0-.09A2.53,2.53,0,0,1,23.8,15c.24,0,.34.2.34.41a9.06,9.06,0,0,1-.43,1.68l.06,0C24.09,16.45,25,15,25.7,15a.5.5,0,0,1,.55.53.51.51,0,0,1-.46.54A.37.37,0,0,1,25.5,16a.37.37,0,0,0-.31-.15c-.32,0-1,1-1.46,1.8a4.78,4.78,0,0,0-.46,1l-.39,1.2c0,.08-.06.08-.15.08Z"/><path class="cls-1" d="M26.35,18.51C26.35,17,27.47,15,29,15a1.25,1.25,0,0,1,1.27,1.38c0,1.3-1,3.66-2.74,3.66A1.38,1.38,0,0,1,26.35,18.51Zm3.49-2.3a.59.59,0,0,0-.59-.67c-.5,0-1.13.45-1.72,1.41a4,4,0,0,0-.68,1.92.56.56,0,0,0,.54.6C28.62,19.47,29.84,17,29.84,16.21Z"/><path class="cls-1" d="M30.82,16.7s0-.05,0-.11S31.51,15,32.23,15c.37,0,.5.29.59,1.34.12,1.34.2,2.73.22,3.5l.05,0a16.4,16.4,0,0,0,1.21-2.5,3.12,3.12,0,0,0,.18-1,1.87,1.87,0,0,0-.06-.44,1.09,1.09,0,0,1-.13-.43c0-.18.1-.42.48-.42s.47.29.47.59a7,7,0,0,1-.79,2.51,17.39,17.39,0,0,1-2.79,4.25,3.1,3.1,0,0,1-1.8,1.08c-.46,0-.66-.28-.66-.56a.5.5,0,0,1,.47-.48.57.57,0,0,1,.44.19.52.52,0,0,0,.3.14,1,1,0,0,0,.55-.25,4.41,4.41,0,0,0,1.3-1.59,1.52,1.52,0,0,0,.1-.67c0-.27-.25-3.49-.38-4.1-.05-.22-.11-.33-.2-.33s-.59.7-.69,1a.08.08,0,0,1-.1,0Z"/><path class="cls-1" d="M35.53,18.88A4.85,4.85,0,0,1,37,15.79,2.55,2.55,0,0,1,38.63,15a.63.63,0,0,1,.67.63,1.87,1.87,0,0,1-1.1,1.53,4.9,4.9,0,0,1-1.71.49,3.13,3.13,0,0,0-.16,1.09.68.68,0,0,0,.62.74,1.73,1.73,0,0,0,1.35-.84s.06-.06.1,0l.13.11c.06,0,.06.07,0,.1A2.62,2.62,0,0,1,36.63,20C35.86,20,35.53,19.66,35.53,18.88Zm1-1.58c.42,0,2-.46,2-1.33,0-.24-.12-.45-.38-.45C37.41,15.52,36.68,16.88,36.58,17.3Z"/><path class="cls-1" d="M39.65,19C39.65,17.34,41,15,42.33,15a.64.64,0,0,1,.68.66.54.54,0,0,1-.49.5.32.32,0,0,1-.31-.26.41.41,0,0,0-.36-.31c-.3,0-.61.28-.87.82a6.28,6.28,0,0,0-.5,2.07c0,.86.26,1,.47,1a1.64,1.64,0,0,0,1-.64c0-.05.07-.07.11-.05l.13.12s.05.06,0,.13a2.61,2.61,0,0,1-1.71,1C40.12,20,39.65,19.74,39.65,19Z"/><path class="cls-1" d="M44.83,15.76H44c-.07,0-.09,0-.07-.1L44,15.4a.13.13,0,0,1,.14-.08H45L45.62,14a.28.28,0,0,1,.19-.18,4.55,4.55,0,0,0,.53-.2.41.41,0,0,1,.18-.07c.07,0,.09.07,0,.23l-.78,1.59H47c.06,0,.08,0,0,.13l-.1.25a.12.12,0,0,1-.11.06h-1.2l-1.15,2.66a3.16,3.16,0,0,0-.27.75c0,.13,0,.2.15.2.34,0,1.11-.67,1.18-.75s.07,0,.11,0l.13.14s0,.06,0,.11A3.85,3.85,0,0,1,43.59,20c-.3,0-.38-.12-.38-.29a1.57,1.57,0,0,1,.13-.55Z"/><path class="cls-1" d="M46.86,18.51C46.86,17,48,15,49.56,15a1.25,1.25,0,0,1,1.27,1.38c0,1.3-1,3.66-2.75,3.66A1.38,1.38,0,0,1,46.86,18.51Zm3.49-2.3a.58.58,0,0,0-.59-.67c-.49,0-1.12.45-1.71,1.41a4,4,0,0,0-.69,1.92.56.56,0,0,0,.55.6C49.14,19.47,50.35,17,50.35,16.21Z"/><path class="cls-1" d="M58.59,12.34c-.1,0-.11-.05-.1-.08l.07-.25s0-.07.15-.07h1.45c.17,0,.19.11.14.21-.18.41-2.24,6-2.45,6.66-.1.36-.11.54,0,.54s.77-.54.83-.61.09,0,.13,0l.12.12A.08.08,0,0,1,59,19c-.08.11-1.1,1.06-1.73,1.06-.19,0-.32-.06-.32-.28a8.46,8.46,0,0,1,.52-1.71l-.09,0c-.58.92-1.69,2-2.5,2a.73.73,0,0,1-.75-.78A5.34,5.34,0,0,1,55.74,16a2.88,2.88,0,0,1,1.85-1,.94.94,0,0,1,.75.39l.91-2.59c.08-.23,0-.46-.3-.46Zm-1.4,5.47A3.69,3.69,0,0,0,58,16.16c0-.56-.25-.78-.63-.78C56.22,15.38,55,18,55,19.05a.35.35,0,0,0,.34.38C55.81,19.43,56.72,18.46,57.19,17.81Z"/><path class="cls-1" d="M59.76,18.88a4.85,4.85,0,0,1,1.51-3.09A2.55,2.55,0,0,1,62.86,15a.63.63,0,0,1,.67.63,1.85,1.85,0,0,1-1.1,1.53,4.9,4.9,0,0,1-1.71.49,3.22,3.22,0,0,0-.15,1.09.68.68,0,0,0,.61.74,1.73,1.73,0,0,0,1.35-.84s.06-.06.1,0l.13.11c.06,0,.06.07,0,.1A2.62,2.62,0,0,1,60.86,20C60.09,20,59.76,19.66,59.76,18.88Zm1.05-1.58c.42,0,2-.46,2-1.33,0-.24-.12-.45-.38-.45C61.64,15.52,60.91,16.88,60.81,17.3Z"/></g></g></svg>