<svg xmlns="http://www.w3.org/2000/svg" viewBox="0 0 117.47 45.07"><defs><style>.cls-1{fill:#aac27f;}.cls-2{fill:#fff;}</style></defs><g id="Layer_2" data-name="Layer 2"><g id="Alpha"><path class="cls-1" d="M53.61,11.22s.33.26.45-.09,1-1.66,3.9-3.07c2.66-1.29,7.18-2.66,7.68-7,.11-1-.21-1.32-.85-.89a11.36,11.36,0,0,1-3.68,1.2c-1.88.39-8.77,1.07-8.26,8.86,0,0,.29.51.36.16.84-3.72,3.38-5.54,4.57-5.79.69-.14.44.09.34.22a10,10,0,0,0-4.51,6.39"/><path class="cls-2" d="M36.34,16.81a15.69,15.69,0,0,1-.33,3c-.31,1.74-2.27,7.57-5.72,9.23-2.68,1.1-4.69.05-5.44-1.21a4.44,4.44,0,0,1,0-4.6,6.06,6.06,0,0,1,3-2.14c1-.42,2.09-.73,3.13-1.11s2.12-.74,3.14-1.19a3.7,3.7,0,0,0,2.17-2m5.54,12.07c0-.15-.45-.25-.48-.11a1.55,1.55,0,0,1-1,1c-.5.08-1.55-.08-1.55-1.63,0-4.27,0-9,0-14.2a4.56,4.56,0,0,0-2.64-4.3,9.2,9.2,0,0,0-4-.92,10,10,0,0,0-5.08,1,5.71,5.71,0,0,0-3.36,4.57,3.33,3.33,0,0,0,.36,2.23,1.24,1.24,0,0,0,1.21.62,1.28,1.28,0,0,0,1.11-.83,1.64,1.64,0,0,0,0-1.23A3.94,3.94,0,0,1,28.58,10a6.7,6.7,0,0,1,5.12-.38,3.29,3.29,0,0,1,2.58,2.5,8.41,8.41,0,0,1,.11,2.65,3.9,3.9,0,0,1-2.57,3.57c-1.32.53-2.69.91-4,1.35-1.5.49-3,.94-4.49,1.47a5.62,5.62,0,0,0-2.48,1.74,4.64,4.64,0,0,0-.93,4c1.21,5.43,7.84,4.62,10.46,2a17.86,17.86,0,0,0,4-7.43s0,0,0,.09c0,2,0,4.57,0,5.78,0,1.76.81,2.9,2,3.24,2.37.64,3.4-.95,3.47-1.62"/><path class="cls-2" d="M50.52,28.92c0-.14-.45-.25-.47-.11a1.58,1.58,0,0,1-1,1c-.5.08-1.54-.08-1.54-1.64,0-.16,0-7.29,0-11.19,0-5.63,0-5.55,0-12.12V4.52a4,4,0,0,0,.49,0c.1,0,.11-.5,0-.5H42.41c-.11,0-.12.5,0,.5h1.7a.74.74,0,0,1,.83.55,2.4,2.4,0,0,1,.12.75V21.17h0c0,2,0,6.38,0,6.58a2.85,2.85,0,0,0,2,2.78c2.36.64,3.39-.95,3.46-1.62"/><path class="cls-2" d="M55.53,23.82l-.09,0A8.91,8.91,0,0,1,55.2,22a25.31,25.31,0,0,1,.36-5.14,10.31,10.31,0,0,1,1.57-4.2,6.69,6.69,0,0,1,5.71-3.18,7.38,7.38,0,0,1,2.92.35,3.86,3.86,0,0,1,2.43,2.49A6.52,6.52,0,0,1,68,17a3.73,3.73,0,0,1-2.82,2.18c-1.4.42-2.82.77-4.22,1.21A26.28,26.28,0,0,0,58,21.49a4.29,4.29,0,0,0-2.49,2.33m13,.64a4.65,4.65,0,0,1-2.37,4.87,9.48,9.48,0,0,1-2.78.85,8.82,8.82,0,0,1-3.88-.42c-2.2-.8-4.55-4.18-2.8-6.5.64-.85,2.37-1.54,3.71-2,1.68-.52,3.38-1,5.06-1.44a9.12,9.12,0,0,0,4-2.09,4.45,4.45,0,0,0,1.54-3.71,5,5,0,0,0-2.68-4.12,9,9,0,0,0-4.35-1.08,10.48,10.48,0,0,0-7.44,2.66,11,11,0,0,0-3.67,8.12,15.27,15.27,0,0,0,.87,5.57,8.24,8.24,0,0,0,7.84,5.66,9.73,9.73,0,0,0,5.75-1.25,8.32,8.32,0,0,0,3.52-3.87A3.3,3.3,0,0,0,71,23.29a1.24,1.24,0,0,0-1.13-.76,1.31,1.31,0,0,0-1.21.7,1.69,1.69,0,0,0-.13,1.23"/><path class="cls-2" d="M96,28.94c0-.14-.45-.24-.48-.11a1.55,1.55,0,0,1-1,1C94,29.92,93,29.76,93,28.2v-14A4.75,4.75,0,0,0,90.76,10,8.27,8.27,0,0,0,86.2,8.76a7,7,0,0,0-3.44.78,9.58,9.58,0,0,0-3.91,3.94l-.36.66,0,0V9.77h.46c.12,0,.11-.5,0-.5H73.83c-.09,0-.11.5,0,.5H75c.66,0,1,.36,1,1.09a2.44,2.44,0,0,1,0,.27V29.29c0,.55-.12.63-.66.63s-1,0-1.44,0c-.1,0-.11.5,0,.5h6.54c.09,0,.11-.5,0-.5-.48,0-1,0-1.43,0s-.6-.11-.6-.61V15.7a.92.92,0,0,1,.1-.44A22.44,22.44,0,0,1,80,12.85a7.51,7.51,0,0,1,5.4-3.13c1.93-.17,3.62.12,4.48,1.78a6.21,6.21,0,0,1,.67,3v6.67h0v5.66h0c0,.51,0,.87,0,.92a2.85,2.85,0,0,0,2,2.78c2.37.65,3.4-.95,3.47-1.62"/><path class="cls-2" d="M111.94,16.81a15.27,15.27,0,0,1-.34,3c-.3,1.74-2.26,7.57-5.71,9.23-2.68,1.1-4.69.05-5.44-1.21a4.41,4.41,0,0,1,0-4.6,6,6,0,0,1,3-2.14c1-.42,2.09-.73,3.13-1.11s2.12-.74,3.14-1.19a3.7,3.7,0,0,0,2.17-2m5.53,12.07c0-.15-.44-.25-.47-.11a1.55,1.55,0,0,1-1,1c-.51.08-1.55-.08-1.55-1.63,0-4.27,0-9,0-14.2a4.58,4.58,0,0,0-2.64-4.3,9.2,9.2,0,0,0-4-.92,10,10,0,0,0-5.08,1,5.71,5.71,0,0,0-3.36,4.57,3.27,3.27,0,0,0,.36,2.23,1.23,1.23,0,0,0,1.2.62,1.29,1.29,0,0,0,1.12-.83,1.64,1.64,0,0,0,0-1.23A3.94,3.94,0,0,1,104.18,10a6.67,6.67,0,0,1,5.11-.38,3.31,3.31,0,0,1,2.59,2.5,8.41,8.41,0,0,1,.11,2.65,3.9,3.9,0,0,1-2.57,3.57c-1.32.53-2.69.91-4,1.35s-3,.94-4.49,1.47a5.65,5.65,0,0,0-2.49,1.74,4.66,4.66,0,0,0-.92,4c1.21,5.43,7.84,4.62,10.46,2a17.86,17.86,0,0,0,4-7.43s0,0,0,.09c0,2,0,4.57,0,5.78,0,1.76.81,2.9,2,3.24,2.37.64,3.4-.95,3.46-1.62"/><path class="cls-2" d="M21,29.92a3.58,3.58,0,0,1-1.25-.11,4.67,4.67,0,0,1-1.44-1.17L9,18.18C8.62,17.7,8.42,17.5,8,17c.09-.07,3.58-3,5.22-4.39a12.34,12.34,0,0,1,6.49-2.82c.09,0,.12-.45,0-.5H12.63a.58.58,0,0,0-.23,0c-.06,0-.05.47,0,.48H13a.84.84,0,0,1,.88.64c.17.62-.56,1.28-.65,1.36L6.64,17.19l-.87.74h0l-.6.5V4.89h.58c.09,0,.06-.5,0-.5H.07c-.09,0-.09.5,0,.5H1.68a1,1,0,0,1,.89.37,1.86,1.86,0,0,1,.17,1c0,10.33,0,12.19,0,22.52v.65c0,.33-.13.44-.46.45h-1c-.09,0-.09.5,0,.51H6.53c.09,0,.1-.49,0-.5H5.7c-.35,0-.51-.12-.53-.43,0-.11,0-.53,0-.64V19.29l1-.86L16.34,29.92H14.79c-.08,0,0,.5,0,.5H21c.08,0,.08-.5,0-.5"/><path class="cls-2" d="M100.72,43.29l.79-1.83.78,1.83Zm2.34,1.78h.83L102,40.72h-.89l-1.95,4.35H100l.45-1.06h2.19Zm-7.43-4.35H94.7l-1.33,1.93L92,40.72H91.1L93,43.36v1.71h.77V43.36ZM84.44,43.29l.78-1.83L86,43.29Zm2.33,1.78h.84l-1.93-4.35h-.9l-1.94,4.35h.84L84.13,44h2.19Zm-8.5-4.35H77.14l-1.43,3.14-1.44-3.14H73.14v4.35h.76V41.59l1.38,3h.85l1.38-3v3.48h.76ZM59.85,43.29l.79-1.83.78,1.83Zm2.34,1.78H63l-1.94-4.35H60.2l-1.94,4.35h.83L59.54,44h2.19ZM51.12,41.45h1.29c.52,0,.8.21.8.61s-.28.61-.8.61H51.12Zm2.06,3.62h1l-1.29-1.71A1.3,1.3,0,0,0,54,42.06c0-.79-.6-1.34-1.59-1.34H50.35v4.35h.77V43.39H52ZM43,44.35V43.23h2.52v-.72H43V41.44H45.6v-.72H42.2v4.35h3.46v-.72Zm-5.78-3.63h-.77v4.35h.77Zm-6.17,0L29.55,44.3l-1.46-3.58h-.84l1.86,4.35H30l1.86-4.35Zm-8.33,0h-.77v4.35h.77Zm-8.34.73h1.29c.52,0,.79.21.79.61s-.27.61-.79.61H14.35Zm2,3.62h1l-1.28-1.71a1.3,1.3,0,0,0,1.17-1.3c0-.79-.6-1.34-1.59-1.34H13.58v4.35h.77V43.39h.85Z"/></g></g></svg>