<svg xmlns="http://www.w3.org/2000/svg" viewBox="0 0 135.43 32.04"><defs><style>.cls-1{fill:#fff;}</style></defs><g id="Layer_2" data-name="Layer 2"><g id="Alpha"><path class="cls-1" d="M109.56,32c1,0,1.64-.5,1.64-1.38v0c0-.77-.51-1.1-1.42-1.33s-1-.3-1-.59h0c0-.22.2-.39.57-.39a2,2,0,0,1,1.16.44l.51-.74a2.58,2.58,0,0,0-1.65-.57,1.4,1.4,0,0,0-1.56,1.35h0c0,.88.58,1.13,1.47,1.36s.9.32.9.57h0c0,.26-.24.42-.64.42a2,2,0,0,1-1.33-.54l-.58.7a2.87,2.87,0,0,0,1.89.71M87.78,32h3.4v-.87H88.76v-.93h2.1v-.88h-2.1v-.9h2.39v-.87H87.78ZM66.33,32h1V29.07L68.54,31h0l1.26-1.91V32h1V27.51H69.73l-1.17,1.88-1.17-1.88H66.33Zm-19.16-.82a1.36,1.36,0,0,1-1.35-1.4v0a1.34,1.34,0,0,1,1.34-1.39,1.36,1.36,0,0,1,1.35,1.41h0a1.34,1.34,0,0,1-1.34,1.39m0,.9a2.31,2.31,0,0,0,2.38-2.3v0a2.37,2.37,0,0,0-4.74,0h0A2.28,2.28,0,0,0,47.16,32M24.23,32h1V30.17H27V32h1V27.51H27v1.76H25.21V27.51h-1Z"/><path class="cls-1" d="M40.65,6.74h.72v-3H41.2a6.21,6.21,0,0,0-4.84,2.66L36.18,4.1H32.87V19.26h3.75V9.06a4.77,4.77,0,0,1,4-2.32"/><path class="cls-1" d="M67.1,15.11a4.93,4.93,0,0,1-4,1.74c-1.77,0-3.34-.87-3.34-2.55s1.73-2.57,3.67-2.57a7.13,7.13,0,0,1,3.63.94Zm3.75,4.15V9.51c0-4-3.43-5.78-7.09-5.77A14,14,0,0,0,57.31,5.4l.9,2.26a11,11,0,0,1,4.85-1.27c2,0,4,1,4,3v.92a10,10,0,0,0-4.3-.94c-3.29,0-6.5,1.55-6.5,5.12,0,3.32,2.86,5.13,5.81,5.13a6.81,6.81,0,0,0,5.27-2.36l0,.5a1.7,1.7,0,0,0,1.64,1.46Z"/><path class="cls-1" d="M78.31,11.68c0-3,1.83-4.95,4.67-4.95a3.85,3.85,0,0,1,2.85,1l2.09-2.32a7.91,7.91,0,0,0-5.19-1.66c-5.3,0-8.17,3.62-8.17,8s2.94,7.94,8.17,7.94A8.3,8.3,0,0,0,88,17.93L85.9,15.62a4.29,4.29,0,0,1-2.92,1c-2.77,0-4.67-1.86-4.67-4.95"/><path class="cls-1" d="M131.68,15.11a4.92,4.92,0,0,1-4,1.74c-1.78,0-3.34-.87-3.34-2.55s1.73-2.57,3.66-2.57a7.1,7.1,0,0,1,3.63.94Zm3.75,4.15V9.51c0-4-3.43-5.78-7.09-5.77A14,14,0,0,0,121.9,5.4l.89,2.26a11,11,0,0,1,4.85-1.27c2,0,4,1,4,3v.92a10,10,0,0,0-4.3-.94c-3.28,0-6.49,1.55-6.49,5.12,0,3.32,2.85,5.13,5.81,5.13A6.82,6.82,0,0,0,132,17.3l0,.5a1.68,1.68,0,0,0,1.63,1.46Z"/><path class="cls-1" d="M114.4,13V6.91h3.66V4.1H114.4V1.78A1.85,1.85,0,0,0,112.56,0h-1.92V4.1h-2.51V6.91h2.51V13a5.86,5.86,0,0,0,2.21,5,8.77,8.77,0,0,0,5.44,1.43V16.64a4.63,4.63,0,0,1-2.89-1,3.37,3.37,0,0,1-1-2.63"/><path class="cls-1" d="M102.47,11.68c0,3.13-1.74,4.95-4.61,4.95s-4.62-1.88-4.62-4.95S95,6.73,97.86,6.73h0c2.81,0,4.61,1.78,4.61,4.95m3.76,0c0-4.52-3-7.95-8.37-7.95s-8.37,3.58-8.37,8,2.93,7.94,8.37,7.94,8.37-3.49,8.37-7.94"/><path class="cls-1" d="M25.41,10.33c0,.14,0,.29,0,.44H16.91v-.21a4.06,4.06,0,0,1,4.38-4c2.39,0,3.88,1,4.07,3.2a4.66,4.66,0,0,1,0,.58m3.3,2.58a10.12,10.12,0,0,0,.15-1.76c0-4.46-2.66-7.43-7.67-7.43-5.25,0-8,3.59-8,7.94s2.87,7.93,8.13,7.93a9.3,9.3,0,0,0,6.39-2.19l-1.59-1.87a8.86,8.86,0,0,1-4.81,1.24,4.3,4.3,0,0,1-4.39-3.86Z"/><path class="cls-1" d="M6.27,13V6.91H9.93V4.1H6.27V1.78A1.85,1.85,0,0,0,4.43,0H2.51V4.1H0V6.91H2.51V13a5.86,5.86,0,0,0,2.21,5,8.77,8.77,0,0,0,5.44,1.43V16.64a4.63,4.63,0,0,1-2.89-1,3.37,3.37,0,0,1-1-2.63"/><path class="cls-1" d="M52.8,6.74h.72v-3h-.17a6.22,6.22,0,0,0-4.84,2.66L48.34,4.1H45V19.26h3.75V9.06a4.79,4.79,0,0,1,4-2.32"/></g></g></svg>